# xmcd
#
# Track frame offsets:
#	150
#	10187
#	21932
#	36945
#	49842
#	60537
#	71597
#	80157
#	91427
#	103472
#	111860
#	125497
#	138735
#	148530
#	158242
#	169945
#	181660
#	193382
#	202362
#	213245
#	223877
#	234577
#	247287
#	259385
#	269725
#	278042
#	289305
#
# Disc length: 4005 seconds
#
# Revision: 0
# Processed by: cddbd v1.4PL0 Copyright (c) Steve Scherf et al.
# Submitted via: audiograbber 1.81.02
#
DISCID=c30fa31b
DTITLE=Hank Snow - The Singing Ranger, Vol.3 (01)
DYEAR=1900
DGENRE=
TTITLE0=Casey Jones Was His Name
TTITLE1=Southbound
TTITLE2=The Streamlined Cannonball
TTITLE3=Lonesome Whistle
TTITLE4=Waiting For A Train
TTITLE5=The Wreck Of The Number Nine
TTITLE6=Pan American
TTITLE7=Big Wheels
TTITLE8=Ghost Trains
TTITLE9=Cattanooga Choo Choo
TTITLE10=The Last Ride
TTITLE11=The Crazy Engineer
TTITLE12=One More Ride
TTITLE13=The Wreck Of The Old '97
TTITLE14=Crazy Little Train Of Love
TTITLE15=Any Old Time
TTITLE16=Blue Yodel #10
TTITLE17=Travelin' Blues
TTITLE18=Never No' Mo' Blues
TTITLE19=Gambling Polka Dot Blues
TTITLE20=You And My Old Guitar
TTITLE21=Roll Along Kentucky Moon
TTITLE22=Moonlight And Skies
TTITLE23=The One Rose (That's Left In My Heart)
TTITLE24=Tuck Away My Lonesome Blues
TTITLE25=Down The Old Road To Home
TTITLE26=I'm Sorry We Met
EXTD=
EXTT0=
EXTT1=
EXTT2=
EXTT3=
EXTT4=
EXTT5=
EXTT6=
EXTT7=
EXTT8=
EXTT9=
EXTT10=
EXTT11=
EXTT12=
EXTT13=
EXTT14=
EXTT15=
EXTT16=
EXTT17=
EXTT18=
EXTT19=
EXTT20=
EXTT21=
EXTT22=
EXTT23=
EXTT24=
EXTT25=
EXTT26=
PLAYORDER=
